<?xml version="1.0" standalone="no"?>
<!DOCTYPE svg PUBLIC "-//W3C//DTD SVG 20010904//EN"
 "http://www.w3.org/TR/2001/REC-SVG-20010904/DTD/svg10.dtd">
<svg version="1.0" xmlns="http://www.w3.org/2000/svg"
 width="421.000000pt" height="421.000000pt" viewBox="0 0 421.000000 421.000000"
 preserveAspectRatio="xMidYMid meet">
<metadata>
Created by potrace 1.14, written by Peter Selinger 2001-2017
</metadata>
<g transform="translate(0.000000,421.000000) scale(0.100000,-0.100000)"
fill="#000000" stroke="none">
<path d="M2344 3888 c-16 -12 -33 -28 -39 -34 -18 -21 -119 -89 -159 -107 -40
-19 -50 -17 -51 11 -1 9 -2 29 -3 43 -1 14 -8 33 -14 42 -12 16 -17 14 -58
-14 -57 -38 -135 -78 -280 -143 -120 -54 -197 -100 -265 -157 -68 -58 -123
-120 -141 -162 l-18 -39 -22 58 c-12 33 -25 58 -28 57 -3 -2 -9 -3 -14 -3 -4
0 -23 -30 -42 -67 -19 -38 -39 -71 -45 -75 -5 -4 -6 -8 -1 -8 5 0 2 -8 -6 -17
-14 -17 -61 -108 -64 -125 -1 -5 -2 -9 -4 -10 -2 -4 -7 -26 -16 -73 -20 -114
-4 -367 36 -566 5 -26 17 -95 25 -155 9 -59 23 -123 30 -141 15 -35 5 -44 -21
-18 -29 29 -79 9 -91 -36 -13 -47 -5 -196 16 -289 12 -52 21 -100 21 -107 0
-9 -16 -12 -55 -10 -30 2 -68 -2 -84 -9 -50 -21 -54 -40 -47 -228 10 -241 14
-309 20 -406 3 -47 9 -148 12 -225 l5 -140 -35 -47 c-20 -26 -36 -51 -36 -57
0 -5 -4 -11 -8 -13 -5 -1 -22 -33 -39 -69 -33 -69 -48 -118 -69 -218 -3 -14
-7 -28 -9 -32 -3 -4 66 -9 153 -12 199 -7 2210 -7 2398 0 l142 5 -15 66 c-9
37 -20 78 -26 92 -6 14 -11 27 -11 30 -4 20 -37 87 -74 150 l-44 75 7 145 c3
80 8 183 10 230 2 47 6 126 9 175 25 403 25 431 -6 462 -21 21 -35 24 -92 25
l-68 1 6 31 c3 17 8 42 11 56 3 14 7 36 10 50 3 14 7 36 10 50 3 14 8 61 10
105 6 132 -34 192 -99 149 -15 -9 -28 -15 -31 -13 -2 3 5 30 15 61 10 31 21
80 25 109 4 28 9 61 11 73 2 12 6 46 9 76 3 30 7 71 10 90 3 19 8 103 11 185
6 154 -2 219 -42 315 -8 19 -14 35 -13 35 1 0 -21 45 -49 100 -62 121 -155
268 -165 259 -4 -4 -7 -37 -7 -73 l-1 -66 -38 44 c-20 24 -48 65 -61 90 -36
68 -116 202 -139 231 l-20 25 -10 -28 c-6 -15 -13 -39 -15 -53 -3 -15 -7 -28
-10 -31 -2 -2 -18 40 -36 94 -58 179 -71 193 -108 121 -15 -30 -22 -37 -23
-23 -3 60 -7 96 -11 101 -3 2 -18 -6 -34 -18z"/>
</g>
</svg>
