<svg xmlns="http://www.w3.org/2000/svg" aria-hidden="true" style="display: none;">
  <!-- icons -->
  <symbol id="icon:date" viewBox="0 0 448 512">
    <path d="M128 0c17.7 0 32 14.3 32 32l0 32 128 0 0-32c0-17.7 14.3-32 32-32s32 14.3 32 32l0 32 48 0c26.5 0 48 21.5 48 48l0 48L0 160l0-48C0 85.5 21.5 64 48 64l48 0 0-32c0-17.7 14.3-32 32-32zM0 192l448 0 0 272c0 26.5-21.5 48-48 48L48 512c-26.5 0-48-21.5-48-48L0 192zm80 64c-8.8 0-16 7.2-16 16l0 96c0 8.8 7.2 16 16 16l96 0c8.8 0 16-7.2 16-16l0-96c0-8.8-7.2-16-16-16l-96 0z"/>
  </symbol>
  <symbol id="icon:edit" viewBox="0 0 512 512">
    <path d="M410.3 231l11.3-11.3-33.9-33.9-62.1-62.1L291.7 89.8l-11.3 11.3-22.6 22.6L58.6 322.9c-10.4 10.4-18 23.3-22.2 37.4L1 480.7c-2.5 8.4-.2 17.5 6.1 23.7s15.3 8.5 23.7 6.1l120.3-35.4c14.1-4.2 27-11.8 37.4-22.2L387.7 253.7 410.3 231zM160 399.4l-9.1 22.7c-4 3.1-8.5 5.4-13.3 6.9L59.4 452l23-78.1c1.4-4.9 3.8-9.4 6.9-13.3l22.7-9.1 0 32c0 8.8 7.2 16 16 16l32 0zM362.7 18.7L348.3 33.2 325.7 55.8 314.3 67.1l33.9 33.9 62.1 62.1 33.9 33.9 11.3-11.3 22.6-22.6 14.5-14.5c25-25 25-65.5 0-90.5L453.3 18.7c-25-25-65.5-25-90.5 0zm-47.4 168l-144 144c-6.2 6.2-16.4 6.2-22.6 0s-6.2-16.4 0-22.6l144-144c6.2-6.2 16.4-6.2 22.6 0s6.2 16.4 0 22.6z"/>
  </symbol>
  <symbol id="icon:feed" viewBox="0 0 16 16" width="16" height="16">
    <path d="M2.002 2.725a.75.75 0 0 1 .797-.699C8.79 2.42 13.58 7.21 13.974 13.201a.75.75 0 0 1-1.497.098 10.502 10.502 0 0 0-9.776-9.776.747.747 0 0 1-.7-.798ZM2.84 7.05h-.002a7.002 7.002 0 0 1 6.113 6.111.75.75 0 0 1-1.49.178 5.503 5.503 0 0 0-4.8-4.8.75.75 0 0 1 .179-1.489ZM2 13a1 1 0 1 1 2 0 1 1 0 0 1-2 0Z"/>
  </symbol>
  <symbol id="icon:fire" viewBox="0 0 448 512">
    <path d="M159.3 5.4c7.8-7.3 19.9-7.2 27.7 .1c27.6 25.9 53.5 53.8 77.7 84c11-14.4 23.5-30.1 37-42.9c7.9-7.4 20.1-7.4 28 .1c34.6 33 63.9 76.6 84.5 118c20.3 40.8 33.8 82.5 33.8 111.9C448 404.2 348.2 512 224 512C98.4 512 0 404.1 0 276.5c0-38.4 17.8-85.3 45.4-131.7C73.3 97.7 112.7 48.6 159.3 5.4zM225.7 416c25.3 0 47.7-7 68.8-21c42.1-29.4 53.4-88.2 28.1-134.4c-4.5-9-16-9.6-22.5-2l-25.2 29.3c-6.6 7.6-18.5 7.4-24.7-.5c-16.5-21-46-58.5-62.8-79.8c-6.3-8-18.3-8.1-24.7-.1c-33.8 42.5-50.8 69.3-50.8 99.4C112 375.4 162.6 416 225.7 416z"/>
  </symbol>
  <symbol id="icon:like" viewBox="0 0 16 16" width="16" height="16">
    <path d="M8.347.631A.75.75 0 0 1 9.123.26l.238.04a3.25 3.25 0 0 1 2.591 4.098L11.494 6h.665a3.25 3.25 0 0 1 3.118 4.167l-1.135 3.859A2.751 2.751 0 0 1 11.503 16H6.586a3.75 3.75 0 0 1-2.184-.702A1.75 1.75 0 0 1 3 16H1.75A1.75 1.75 0 0 1 0 14.25v-6.5C0 6.784.784 6 1.75 6h3.417a.25.25 0 0 0 .217-.127ZM4.75 13.649l.396.33c.404.337.914.521 1.44.521h4.917a1.25 1.25 0 0 0 1.2-.897l1.135-3.859A1.75 1.75 0 0 0 12.159 7.5H10.5a.75.75 0 0 1-.721-.956l.731-2.558a1.75 1.75 0 0 0-1.127-2.14L6.69 6.611a1.75 1.75 0 0 1-1.523.889H4.75ZM3.25 7.5h-1.5a.25.25 0 0 0-.25.25v6.5c0 .138.112.25.25.25H3a.25.25 0 0 0 .25-.25Z"/>
  </symbol>
  <symbol id="icon:link-ext" viewBox="0 0 16 16" width="16" height="16">
    <path d="M3.75 2h3.5a.75.75 0 0 1 0 1.5h-3.5a.25.25 0 0 0-.25.25v8.5c0 .138.112.25.25.25h8.5a.25.25 0 0 0 .25-.25v-3.5a.75.75 0 0 1 1.5 0v3.5A1.75 1.75 0 0 1 12.25 14h-8.5A1.75 1.75 0 0 1 2 12.25v-8.5C2 2.784 2.784 2 3.75 2Zm6.854-1h4.146a.25.25 0 0 1 .25.25v4.146a.25.25 0 0 1-.427.177L13.03 4.03 9.28 7.78a.751.751 0 0 1-1.042-.018.751.751 0 0 1-.018-1.042l3.75-3.75-1.543-1.543A.25.25 0 0 1 10.604 1Z"/>
  </symbol>
  <symbol id="icon:link" viewBox="0 0 16 16" width="16" height="16">
    <path d="m7.775 3.275 1.25-1.25a3.5 3.5 0 1 1 4.95 4.95l-2.5 2.5a3.5 3.5 0 0 1-4.95 0 .751.751 0 0 1 .018-1.042.751.751 0 0 1 1.042-.018 1.998 1.998 0 0 0 2.83 0l2.5-2.5a2.002 2.002 0 0 0-2.83-2.83l-1.25 1.25a.751.751 0 0 1-1.042-.018.751.751 0 0 1-.018-1.042Zm-4.69 9.64a1.998 1.998 0 0 0 2.83 0l1.25-1.25a.751.751 0 0 1 1.042.018.751.751 0 0 1 .018 1.042l-1.25 1.25a3.5 3.5 0 1 1-4.95-4.95l2.5-2.5a3.5 3.5 0 0 1 4.95 0 .751.751 0 0 1-.018 1.042.751.751 0 0 1-1.042.018 1.998 1.998 0 0 0-2.83 0l-2.5 2.5a1.998 1.998 0 0 0 0 2.83Z"/>
  </symbol>
  <symbol id="icon:list" viewBox="0 0 384 512">
    <path d="M192 0c-41.8 0-77.4 26.7-90.5 64L64 64C28.7 64 0 92.7 0 128L0 448c0 35.3 28.7 64 64 64l256 0c35.3 0 64-28.7 64-64l0-320c0-35.3-28.7-64-64-64l-37.5 0C269.4 26.7 233.8 0 192 0zm0 64a32 32 0 1 1 0 64 32 32 0 1 1 0-64zM72 272a24 24 0 1 1 48 0 24 24 0 1 1 -48 0zm104-16l128 0c8.8 0 16 7.2 16 16s-7.2 16-16 16l-128 0c-8.8 0-16-7.2-16-16s7.2-16 16-16zM72 368a24 24 0 1 1 48 0 24 24 0 1 1 -48 0zm88 0c0-8.8 7.2-16 16-16l128 0c8.8 0 16 7.2 16 16s-7.2 16-16 16l-128 0c-8.8 0-16-7.2-16-16z"/>
  </symbol>
  <symbol id="icon:mail" viewBox="0 0 512 512">
    <path d="M64 112c-8.8 0-16 7.2-16 16l0 22.1L220.5 291.7c20.7 17 50.4 17 71.1 0L464 150.1l0-22.1c0-8.8-7.2-16-16-16L64 112zM48 212.2L48 384c0 8.8 7.2 16 16 16l384 0c8.8 0 16-7.2 16-16l0-171.8L322 328.8c-38.4 31.5-93.7 31.5-132 0L48 212.2zM0 128C0 92.7 28.7 64 64 64l384 0c35.3 0 64 28.7 64 64l0 256c0 35.3-28.7 64-64 64L64 448c-35.3 0-64-28.7-64-64L0 128z"/>
  </symbol>
  <symbol id="icon:tags" viewBox="0 0 512 512">
    <path d="M345 39.1L472.8 168.4c52.4 53 52.4 138.2 0 191.2L360.8 472.9c-9.3 9.4-24.5 9.5-33.9 .2s-9.5-24.5-.2-33.9L438.6 325.9c33.9-34.3 33.9-89.4 0-123.7L310.9 72.9c-9.3-9.4-9.2-24.6 .2-33.9s24.6-9.2 33.9 .2zM0 229.5L0 80C0 53.5 21.5 32 48 32l149.5 0c17 0 33.3 6.7 45.3 18.7l168 168c25 25 25 65.5 0 90.5L277.3 442.7c-25 25-65.5 25-90.5 0l-168-168C6.7 262.7 0 246.5 0 229.5zM144 144a32 32 0 1 0 -64 0 32 32 0 1 0 64 0z"/>
  </symbol>
  <symbol id="icon:time" viewBox="0 0 512 512">
    <path d="M256 0a256 256 0 1 1 0 512A256 256 0 1 1 256 0zM232 120l0 136c0 8 4 15.5 10.7 20l96 64c11 7.4 25.9 4.4 33.3-6.7s4.4-25.9-6.7-33.3L280 243.2 280 120c0-13.3-10.7-24-24-24s-24 10.7-24 24z"/>
  </symbol>
  <symbol id="icon:user" viewBox="0 0 640 512">
    <path d="M96 128a128 128 0 1 1 256 0A128 128 0 1 1 96 128zM0 482.3C0 383.8 79.8 304 178.3 304l91.4 0C368.2 304 448 383.8 448 482.3c0 16.4-13.3 29.7-29.7 29.7L29.7 512C13.3 512 0 498.7 0 482.3zM609.3 512l-137.8 0c5.4-9.4 8.6-20.3 8.6-32l0-8c0-60.7-27.1-115.2-69.8-151.8c2.4-.1 4.7-.2 7.1-.2l61.4 0C567.8 320 640 392.2 640 481.3c0 17-13.8 30.7-30.7 30.7zM432 256c-31 0-59-12.6-79.3-32.9C372.4 196.5 384 163.6 384 128c0-26.8-6.6-52.1-18.3-74.3C384.3 40.1 407.2 32 432 32c61.9 0 112 50.1 112 112s-50.1 112-112 112z"/>
  </symbol>
  <!-- logos -->
  <symbol id="logo:github" viewBox="0 0 16 16" width="16" height="16">
    <path d="M8 0c4.42 0 8 3.58 8 8a8.013 8.013 0 0 1-5.45 7.59c-.4.08-.55-.17-.55-.38 0-.27.01-1.13.01-2.2 0-.75-.25-1.23-.54-1.48 1.78-.2 3.65-.88 3.65-3.95 0-.88-.31-1.59-.82-2.15.08-.2.36-1.02-.08-2.12 0 0-.67-.22-2.2.82-.64-.18-1.32-.27-2-.27-.68 0-1.36.09-2 .27-1.53-1.03-2.2-.82-2.2-.82-.44 1.1-.16 1.92-.08 2.12-.51.56-.82 1.28-.82 2.15 0 3.06 1.86 3.75 3.64 3.95-.23.2-.44.55-.51 1.07-.46.21-1.61.55-2.33-.66-.15-.24-.6-.83-1.23-.82-.67.01-.27.38.01.53.34.19.73.9.82 1.13.16.45.68 1.31 2.69.94 0 .67.01 1.3.01 1.49 0 .21-.15.45-.55.38A7.995 7.995 0 0 1 0 8c0-4.42 3.58-8 8-8Z"/>
  </symbol>
  <symbol id="logo:linkedin" viewBox="0 0 16 16" width="16" height="16">
    <path d="M4.13438 15H1.23125V5.65312H4.13438V15ZM2.68125 4.37812C1.75312 4.37812 1 3.60938 1 2.68125C1 2.23535 1.17713 1.80772 1.49243 1.49243C1.80772 1.17713 2.23535 1 2.68125 1C3.12715 1 3.55478 1.17713 3.87007 1.49243C4.18537 1.80772 4.3625 2.23535 4.3625 2.68125C4.3625 3.60938 3.60938 4.37812 2.68125 4.37812ZM14.9969 15H12.1V10.45C12.1 9.36562 12.0781 7.975 10.5906 7.975C9.08125 7.975 8.85 9.15312 8.85 10.3719V15H5.95V5.65312H8.73438V6.92812H8.775C9.1625 6.19375 10.1094 5.41875 11.5219 5.41875C14.4594 5.41875 15 7.35313 15 9.86563V15H14.9969Z"/>
  </symbol>
</svg>
